<svg xmlns="http://www.w3.org/2000/svg" viewBox="0 0 1200 880" role="img" aria-labelledby="title desc">
  <title id="title">High-Risk Action Approval Chain</title>
  <desc id="desc">After a user request enters the system, the agent creates a structured action request. The runtime applies input filtering, task and risk classification, permission checks, and execution isolation before a policy decision. Unauthorized actions are rejected or escalated; authorized low-risk actions run under controls; high-risk actions or external side effects require human approval. Failures trigger rollback or compensation, and every path is audited.</desc>
  <defs>
    <marker id="arrow" markerWidth="9" markerHeight="9" refX="8" refY="4.5" orient="auto" markerUnits="strokeWidth">
      <path d="M0,0 L9,4.5 L0,9 Z" fill="#637993"/>
    </marker>
    <marker id="arrow-danger" markerWidth="9" markerHeight="9" refX="8" refY="4.5" orient="auto" markerUnits="strokeWidth">
      <path d="M0,0 L9,4.5 L0,9 Z" fill="#b85c58"/>
    </marker>
    <style>
      .panel { fill: #f8fbff; stroke: #d5e1ee; stroke-width: 1.8; }
      .request { fill: #eaf8f4; stroke: #2b8b79; stroke-width: 2; }
      .agent { fill: #eef5ff; stroke: #4a78c2; stroke-width: 2; }
      .guard { fill: #f7f3ff; stroke: #8066b3; stroke-width: 2; }
      .gate { fill: #fff8e8; stroke: #d3982f; stroke-width: 2.2; }
      .execute { fill: #eef5ff; stroke: #4a78c2; stroke-width: 2; }
      .human { fill: #eaf8f4; stroke: #2b8b79; stroke-width: 2.2; }
      .danger { fill: #fff0f0; stroke: #b85c58; stroke-width: 2; }
      .recover { fill: #f7f3ff; stroke: #8066b3; stroke-width: 2; }
      .audit { fill: #edf7ff; stroke: #367ba6; stroke-width: 2; }
      .flow { fill: none; stroke: #637993; stroke-width: 2.3; marker-end: url(#arrow); }
      .danger-flow { fill: none; stroke: #b85c58; stroke-width: 2.2; stroke-dasharray: 7 5; marker-end: url(#arrow-danger); }
      .panel-title { fill: #526982; font: 700 19px system-ui, -apple-system, "Segoe UI", sans-serif; }
      .title { fill: #17365d; font: 700 21px system-ui, -apple-system, "Segoe UI", sans-serif; text-anchor: middle; }
      .detail { fill: #526982; font: 16px system-ui, -apple-system, "Segoe UI", sans-serif; text-anchor: middle; }
      .step-title { fill: #2c4767; font: 700 18px system-ui, -apple-system, "Segoe UI", sans-serif; }
      .step-detail { fill: #526982; font: 15px system-ui, -apple-system, "Segoe UI", sans-serif; }
      .num { fill: #8066b3; }
      .num-text { fill: #ffffff; font: 700 15px system-ui, -apple-system, "Segoe UI", sans-serif; text-anchor: middle; dominant-baseline: central; }
      .edge-label { fill: #526982; font: 700 16px system-ui, -apple-system, "Segoe UI", sans-serif; }
      .danger-label { fill: #a6504d; font: 700 16px system-ui, -apple-system, "Segoe UI", sans-serif; }
    </style>
  </defs>

  <rect x="20" y="20" width="405" height="840" rx="22" class="panel"/>
  <text x="45" y="57" class="panel-title">1. Automated Pre-execution Defenses</text>

  <rect x="55" y="82" width="335" height="58" rx="14" class="request"/>
  <text x="222" y="118" class="title">User request</text>
  <path d="M222 140 L222 165" class="flow"/>

  <rect x="55" y="165" width="335" height="72" rx="14" class="agent"/>
  <text x="222" y="197" class="title" style="font-size:20px">Agent creates an action request</text>
  <text x="222" y="222" class="detail" style="font-size:15px">Action · parameters · resource · reason</text>
  <path d="M222 237 L222 265" class="flow"/>

  <rect x="45" y="265" width="355" height="416" rx="18" class="guard"/>
  <text x="222" y="301" class="title">Pre-execution defenses</text>

  <circle cx="77" cy="345" r="17" class="num"/>
  <text x="77" y="345" class="num-text">1</text>
  <text x="108" y="340" class="step-title">Input filtering</text>
  <text x="108" y="360" class="step-detail">
    <tspan x="108">Sensitive data · prompt injection</tspan>
    <tspan x="108" dy="18">Unauthorized intent</tspan>
  </text>
  <line x1="68" y1="392" x2="377" y2="392" stroke="#d9d2e9"/>

  <circle cx="77" cy="435" r="17" class="num"/>
  <text x="77" y="435" class="num-text">2</text>
  <text x="108" y="430" class="step-title">Task and risk classification</text>
  <text x="108" y="450" class="step-detail">
    <tspan x="108">Low risk · write access</tspan>
    <tspan x="108" dy="18">External impact · high risk</tspan>
  </text>
  <line x1="68" y1="482" x2="377" y2="482" stroke="#d9d2e9"/>

  <circle cx="77" cy="525" r="17" class="num"/>
  <text x="77" y="525" class="num-text">3</text>
  <text x="108" y="520" class="step-title">Permission control</text>
  <text x="108" y="545" class="step-detail">Role · tool · resource · environment</text>
  <line x1="68" y1="572" x2="377" y2="572" stroke="#d9d2e9"/>

  <circle cx="77" cy="615" r="17" class="num"/>
  <text x="77" y="615" class="num-text">4</text>
  <text x="108" y="610" class="step-title">Execution isolation</text>
  <text x="108" y="630" class="step-detail">
    <tspan x="108">Sandbox · path/network limits</tspan>
    <tspan x="108" dy="18">Timeouts</tspan>
  </text>

  <path d="M400 473 L460 473" class="flow"/>
  <polygon points="535,393 610,473 535,553 460,473" class="gate"/>
  <text x="535" y="466" class="title">Policy</text>
  <text x="535" y="491" class="title">decision</text>

  <path d="M535 393 L535 102 L705 102" class="danger-flow"/>
  <text x="555" y="128" class="danger-label">Unauthorized</text>
  <rect x="705" y="62" width="450" height="80" rx="15" class="danger"/>
  <text x="930" y="94" class="title">Reject or escalate</text>
  <text x="930" y="120" class="detail">Record reason, escalation target, and audit data</text>

  <path d="M610 473 L770 473 L770 283 L840 283" class="flow"/>
  <text x="625" y="456" class="edge-label">Low risk and authorized</text>

  <path d="M535 553 L535 593" class="flow"/>
  <text x="553" y="580" class="edge-label">High risk or external side effect</text>
  <rect x="455" y="593" width="320" height="112" rx="16" class="gate"/>
  <text x="615" y="625" class="title">Approval gate</text>
  <text x="615" y="652" class="detail" style="font-size:14px">Deletion · deployment · messaging</text>
  <text x="615" y="678" class="detail" style="font-size:14px">Show impact; bind actual parameters</text>
  <path d="M615 705 L615 734" class="flow"/>

  <polygon points="615,734 710,786 615,838 520,786" class="human"/>
  <text x="615" y="780" class="title">Did the human</text>
  <text x="615" y="805" class="title">approve?</text>

  <path d="M710 786 L805 786 L805 323 L840 323" class="flow"/>
  <text x="728" y="770" class="edge-label">Yes</text>
  <path d="M520 786 L448 786" class="danger-flow"/>
  <text x="474" y="771" class="danger-label">No</text>
  <rect x="215" y="744" width="230" height="84" rx="15" class="danger"/>
  <text x="330" y="777" class="title" style="font-size:17px">Reject the action and stop</text>
  <text x="330" y="805" class="detail" style="font-size:14px">Record decision and audit data</text>

  <rect x="840" y="243" width="315" height="80" rx="15" class="execute"/>
  <text x="998" y="276" class="title" style="font-size:20px">Controlled, isolated execution</text>
  <text x="998" y="302" class="detail" style="font-size:15px">Parameters must match approval</text>
  <path d="M998 323 L998 373" class="flow"/>

  <polygon points="998,373 1110,433 998,493 886,433" class="gate"/>
  <text x="998" y="426" class="title">Did execution</text>
  <text x="998" y="451" class="title">succeed?</text>

  <path d="M998 493 L998 548" class="flow"/>
  <text x="1016" y="526" class="danger-label">No</text>
  <rect x="840" y="548" width="315" height="78" rx="15" class="recover"/>
  <text x="998" y="580" class="title">Rollback or compensate</text>
  <text x="998" y="607" class="detail">Restore state and log recovery</text>
  <path d="M998 626 L998 680" class="flow"/>

  <path d="M1110 433 L1175 433 L1175 720 L1155 720" class="flow"/>
  <text x="1129" y="417" class="edge-label">Yes</text>
  <rect x="840" y="680" width="315" height="124" rx="16" class="audit"/>
  <text x="998" y="716" class="title">Write the audit log</text>
  <text x="998" y="744" class="detail">Who · when · target · action · result</text>
  <text x="998" y="771" class="detail">Return the result or terminate</text>
</svg>
