<svg xmlns="http://www.w3.org/2000/svg" viewBox="0 0 1100 790" role="img" aria-labelledby="title desc">
  <title id="title">Layered Multi-Agent System Architecture</title>
  <desc id="desc">The system core comprises interaction and task specifications, the control plane, communication and shared state, parallel agent execution, and tools and resources. Adjacent layers interact bidirectionally rather than as serial steps. Quality assurance on the left and governance and observability on the right span multiple layers.</desc>
  <defs>
    <marker id="arrow" markerWidth="8" markerHeight="8" refX="7" refY="4" orient="auto-start-reverse" markerUnits="strokeWidth">
      <path d="M0,0 L8,4 L0,8 Z" fill="#657b97"/>
    </marker>
    <style>
      .frame { fill: #f8fbff; stroke: #d5e1ef; stroke-width: 1.5; }
      .frame-title { fill: #536983; font: 700 17px system-ui, -apple-system, "Segoe UI", sans-serif; }
      .frame-note { fill: #7a8ba0; font: 15px system-ui, -apple-system, "Segoe UI", sans-serif; }
      .layer { fill: #eef5ff; stroke: #4a78c2; stroke-width: 1.8; }
      .interaction { fill: #eaf8f4; stroke: #248c78; stroke-width: 1.9; }
      .coordination { fill: #edf8fa; stroke: #36899a; stroke-width: 1.9; }
      .execution { fill: #f4efff; stroke: #8066b3; stroke-width: 1.9; }
      .resource { fill: #f5f7fa; stroke: #75869b; stroke-width: 1.7; }
      .layer-title { fill: #17365d; font: 700 21px system-ui, -apple-system, "Segoe UI", sans-serif; }
      .layer-detail { fill: #536985; font: 15px system-ui, -apple-system, "Segoe UI", sans-serif; }
      .pill { fill: #ffffff; stroke: #aac0dd; stroke-width: 1.3; }
      .pill-coordination { fill: #ffffff; stroke: #8abcc5; stroke-width: 1.3; }
      .pill-execution { fill: #ffffff; stroke: #b4a2d5; stroke-width: 1.3; }
      .pill-resource { fill: #ffffff; stroke: #b5c0cd; stroke-width: 1.2; }
      .pill-text { fill: #36516f; font: 600 15px system-ui, -apple-system, "Segoe UI", sans-serif; text-anchor: middle; dominant-baseline: middle; }
      .bidirectional { fill: none; stroke: #657b97; stroke-width: 1.9; marker-start: url(#arrow); marker-end: url(#arrow); }
      .edge-label { fill: #65758b; font: 600 13px system-ui, -apple-system, "Segoe UI", sans-serif; }
      .quality { fill: #fff0f0; stroke: #bd6d67; stroke-width: 1.8; }
      .govern { fill: #fff8e8; stroke: #d79a2b; stroke-width: 1.8; }
      .rail-title { font: 700 18px system-ui, -apple-system, "Segoe UI", sans-serif; text-anchor: middle; }
      .quality-title { fill: #86423d; }
      .govern-title { fill: #6b4808; }
      .rail-subtitle { font: 14px system-ui, -apple-system, "Segoe UI", sans-serif; text-anchor: middle; }
      .quality-subtitle { fill: #a15d57; }
      .govern-subtitle { fill: #936919; }
      .rail-item { fill: #ffffff; stroke-width: 1.1; }
      .quality-item { stroke: #d7a09c; }
      .govern-item { stroke: #e4bd72; }
      .rail-text { fill: #665a58; font: 600 14px system-ui, -apple-system, "Segoe UI", sans-serif; text-anchor: middle; dominant-baseline: middle; }
      .quality-bracket { fill: none; stroke: #bd6d67; stroke-width: 2; stroke-dasharray: 6 5; }
      .govern-bracket { fill: none; stroke: #d79a2b; stroke-width: 2; stroke-dasharray: 6 5; }
    </style>
  </defs>

  <!-- System core: vertical position shows layers; bidirectional arrows show interaction -->
  <rect x="190" y="20" width="720" height="750" rx="24" class="frame"/>
  <text x="220" y="52" class="frame-title">System core</text>
  <text x="330" y="52" class="frame-note">Two-way layer interactions—not a serial sequence</text>

  <!-- Interaction and task-specification layer -->
  <rect x="235" y="78" width="630" height="80" rx="15" class="interaction"/>
  <text x="260" y="108" class="layer-title">Interaction and task-specification layer</text>
  <text x="260" y="135" class="layer-detail">Human goals and confirmation ↔ task spec, success criteria, final feedback</text>

  <!-- Control plane -->
  <rect x="235" y="198" width="630" height="118" rx="15" class="layer"/>
  <text x="260" y="228" class="layer-title">Control plane</text>
  <text x="260" y="251" class="layer-detail">Select roles, tasks, topology, and the next action</text>
  <rect x="270" y="267" width="160" height="34" rx="10" class="pill"/>
  <rect x="470" y="267" width="160" height="34" rx="10" class="pill"/>
  <rect x="670" y="267" width="160" height="34" rx="10" class="pill"/>
  <text x="350" y="285" class="pill-text">Org + topology</text>
  <text x="550" y="285" class="pill-text">Planner</text>
  <text x="750" y="285" class="pill-text">Router / Supervisor</text>

  <!-- Collaboration foundation -->
  <rect x="235" y="356" width="630" height="92" rx="15" class="coordination"/>
  <text x="260" y="386" class="layer-title" style="font-size:19px">Communication and shared state: collaboration foundation</text>
  <rect x="270" y="400" width="160" height="32" rx="10" class="pill-coordination"/>
  <rect x="470" y="400" width="160" height="32" rx="10" class="pill-coordination"/>
  <rect x="670" y="400" width="160" height="32" rx="10" class="pill-coordination"/>
  <text x="350" y="417" class="pill-text">Message protocol</text>
  <text x="550" y="417" class="pill-text">Shared state</text>
  <text x="750" y="417" class="pill-text" style="font-size:14px">Context and memory</text>

  <!-- Parallel execution plane -->
  <rect x="235" y="488" width="630" height="105" rx="15" class="execution"/>
  <text x="260" y="518" class="layer-title">Agent execution plane</text>
  <text x="260" y="541" class="layer-detail">Agents work in parallel and repeatedly read/write the collaboration layer</text>
  <rect x="270" y="551" width="160" height="30" rx="10" class="pill-execution"/>
  <rect x="470" y="551" width="160" height="30" rx="10" class="pill-execution"/>
  <rect x="670" y="551" width="160" height="30" rx="10" class="pill-execution"/>
  <text x="350" y="567" class="pill-text">Agent A</text>
  <text x="550" y="567" class="pill-text">Agent B</text>
  <text x="750" y="567" class="pill-text">Agent C</text>

  <!-- Tools and resources layer -->
  <rect x="235" y="636" width="630" height="84" rx="15" class="resource"/>
  <text x="260" y="666" class="layer-title">Tools and resources</text>
  <rect x="270" y="680" width="125" height="28" rx="9" class="pill-resource"/>
  <rect x="415" y="680" width="125" height="28" rx="9" class="pill-resource"/>
  <rect x="560" y="680" width="125" height="28" rx="9" class="pill-resource"/>
  <rect x="705" y="680" width="125" height="28" rx="9" class="pill-resource"/>
  <text x="332.5" y="696" class="pill-text">Files</text>
  <text x="477.5" y="696" class="pill-text">Browser</text>
  <text x="622.5" y="696" class="pill-text">Code execution</text>
  <text x="767.5" y="696" class="pill-text" style="font-size:14px">External systems</text>

  <!-- Bidirectional relationships between layers -->
  <path d="M550 166 L550 190" class="bidirectional"/>
  <text x="570" y="183" class="edge-label">Spec / feedback</text>

  <path d="M550 324 L550 348" class="bidirectional"/>
  <text x="570" y="341" class="edge-label">Task / state</text>

  <path d="M350 456 L350 480" class="bidirectional"/>
  <path d="M550 456 L550 480" class="bidirectional"/>
  <path d="M750 456 L750 480" class="bidirectional"/>
  <text x="770" y="473" class="edge-label" style="font-size:11.5px">Message / observation</text>

  <path d="M350 601 L350 628" class="bidirectional"/>
  <path d="M550 601 L550 628" class="bidirectional"/>
  <path d="M750 601 L750 628" class="bidirectional"/>
  <text x="770" y="620" class="edge-label">Call / result</text>

  <!-- Left: cross-layer quality assurance -->
  <path d="M180 198 h-12 v522 h12" class="quality-bracket"/>
  <rect x="18" y="198" width="135" height="522" rx="18" class="quality"/>
  <text x="85.5" y="235" class="rail-title quality-title" style="font-size:16px">Quality checks</text>
  <text x="85.5" y="258" class="rail-subtitle quality-subtitle" style="font-size:12px">Across all layers</text>
  <rect x="37" y="292" width="97" height="46" rx="10" class="rail-item quality-item"/>
  <text x="85.5" y="316" class="rail-text">Acceptance</text>
  <rect x="37" y="362" width="97" height="54" rx="10" class="rail-item quality-item"/>
  <text x="85.5" y="383" class="rail-text">Review</text>
  <text x="85.5" y="401" class="rail-text">Test / Judge</text>
  <rect x="37" y="440" width="97" height="54" rx="10" class="rail-item quality-item"/>
  <text x="85.5" y="462" class="rail-text" style="font-size:13px">Failure signal</text>
  <text x="85.5" y="480" class="rail-text">Replan</text>
  <rect x="37" y="518" width="97" height="46" rx="10" class="rail-item quality-item"/>
  <text x="85.5" y="542" class="rail-text">Stop rules</text>

  <!-- Right: cross-layer governance and observability -->
  <path d="M920 198 h12 v522 h-12" class="govern-bracket"/>
  <rect x="947" y="198" width="135" height="522" rx="18" class="govern"/>
  <text x="1014.5" y="232" class="rail-title govern-title">Governance</text>
  <text x="1014.5" y="254" class="rail-title govern-title">observability</text>
  <text x="1014.5" y="277" class="rail-subtitle govern-subtitle" style="font-size:12px">Controls + records</text>
  <rect x="966" y="310" width="97" height="46" rx="10" class="rail-item govern-item"/>
  <text x="1014.5" y="327" class="rail-text" style="font-size:12px">Permissions</text>
  <text x="1014.5" y="343" class="rail-text" style="font-size:12px">Approvals</text>
  <rect x="966" y="380" width="97" height="46" rx="10" class="rail-item govern-item"/>
  <text x="1014.5" y="404" class="rail-text">Logs / traces</text>
  <rect x="966" y="450" width="97" height="46" rx="10" class="rail-item govern-item"/>
  <text x="1014.5" y="474" class="rail-text" style="font-size:12px">Cost / budget</text>
  <rect x="966" y="520" width="97" height="46" rx="10" class="rail-item govern-item"/>
  <text x="1014.5" y="537" class="rail-text" style="font-size:12px">Safety</text>
  <text x="1014.5" y="553" class="rail-text" style="font-size:12px">Rollback</text>
</svg>
